# xmcd
#
# Track frame offsets: 
#        150
#        19735
#        38568
#        52812
#        69734
#        79888
#        98341
#        112142
#        134103
#        148145
#        174638
#        191933
#
# Disc length: 2742 seconds
#
# Revision: 3
# Processed by: cddbd v1.5.2PL0 Copyright (c) Steve Scherf et al.
# Submitted via: ExactAudioCopy v0.99pb5
#
DISCID=ad0ab40c
DTITLE=Ingrid Michaelson - Girls And Boys
DYEAR=2006
DGENRE=Pop
TTITLE0=Die Alone
TTITLE1=Masochist
TTITLE2=Breakable
TTITLE3=The Hat
TTITLE4=The Way I Am
TTITLE5=Overboard
TTITLE6=Glass
TTITLE7=Starting Now
TTITLE8=Corner Of Your Heart
TTITLE9=December Baby
TTITLE10=Highway
TTITLE11=Far Away
EXTD=
EXTT0=
EXTT1=
EXTT2=
EXTT3=
EXTT4=
EXTT5=
EXTT6=
EXTT7=
EXTT8=
EXTT9=
EXTT10=
EXTT11=
PLAYORDER=
